<?xml version="1.0" encoding="UTF-8"?>
<svg xmlns="http://www.w3.org/2000/svg" xmlns:xlink="http://www.w3.org/1999/xlink" width="350px" height="350px" viewBox="0 0 350 350" version="1.1">
<g id="surface1">
<path style=" stroke:none;fill-rule:nonzero;fill:rgb(0%,0%,0%);fill-opacity:1;" d="M 216.542969 175.007812 L 346.539062 45.019531 C 351.152344 40.40625 351.152344 32.933594 346.539062 28.320312 L 321.695312 3.46875 C 319.480469 1.253906 316.480469 0.0117188 313.347656 0.0117188 C 310.210938 0.0117188 307.207031 1.253906 304.996094 3.46875 L 175 133.464844 L 45.003906 3.46875 C 42.792969 1.253906 39.789062 0.0117188 36.652344 0.0117188 C 33.519531 0.0117188 30.519531 1.253906 28.304688 3.46875 L 3.460938 28.320312 C -1.152344 32.933594 -1.152344 40.40625 3.460938 45.019531 L 133.457031 175.007812 L 3.476562 304.980469 C -1.136719 309.59375 -1.136719 317.066406 3.476562 321.679688 L 28.320312 346.53125 C 30.53125 348.746094 33.535156 349.988281 36.671875 349.988281 C 39.804688 349.988281 42.808594 348.746094 45.019531 346.53125 L 175 216.550781 L 304.980469 346.53125 C 307.191406 348.746094 310.195312 349.988281 313.328125 349.988281 C 316.464844 349.988281 319.46875 348.746094 321.675781 346.53125 L 346.523438 321.679688 C 351.136719 317.066406 351.136719 309.59375 346.523438 304.980469 Z M 216.542969 175.007812 "/>
</g>
</svg>
